<?xml version="1.0" encoding="UTF-8"?>
<!-- Created with Inkscape (http://www.inkscape.org/) -->
<svg id="svg1" width="99.22mm" height="82.938mm" version="1.1" viewBox="0 0 99.22 82.938" xml:space="preserve" xmlns="http://www.w3.org/2000/svg"><path id="path1-3" d="m3.125 28.969c-1.7266 0-3.1098 1.3984-3.1098 3.125l-0.01526 18.75c0 1.7266 1.3984 3.125 3.125 3.125h25c1.7266 0 3.125-1.3984 3.125-3.125v-15.625c0-1.7266-1.3984-3.125-3.125-3.125h-12.5l-3.125-3.125h-9.375zm15.716 7.0312 9.1922 8.2719h-2.7573v7.3532h-4.5959v-5.5145h-3.6759v5.5145h-4.5959v-7.3532h-2.7573l9.1906-8.2719z" fill="#04d1f9" stroke-width=".78125"/><path id="path1-6-6" d="m38.344 42.858h11.111v-13.889h-11.111zm0 11.111h11.111v-8.3333h-11.111zm13.889 0h11.111v-13.889h-11.111zm0-25v8.3333h11.111v-8.3333z" fill="#04d1f9" stroke-width=".69444"/><path id="path1-2-0" d="m83.431 28.969-2.6316 2.6316v2.6316h-5.2632c-1.4539 0-2.6187 1.1776-2.6187 2.6316l-0.01285 14.474c0 1.454 1.1776 2.6316 2.6316 2.6316h21.053c1.454 0 2.6316-1.1776 2.6316-2.6316v-14.474c0-1.454-1.1776-2.6316-2.6316-2.6316h-5.2632v-2.6316l-2.6316-2.6316zm0 2.6316h5.2632v2.6316h-5.2632zm2.6316 5.9211c0.01 0.0224 0.0163 0.037 0.0257 0.0591 0.21535 0.50589 0.40293 0.94682 0.58466 1.3736 3e-3 6e-3 5e-3 0.0143 8e-3 0.0206 0.0229 0.0538 0.0504 0.11751 0.0732 0.1709 0.0468 0.10751 0.11288 0.26194 0.15676 0.36236 0.47582 1.0975 1.0026 2.2328 1.9942 4.1607 0.0433 0.0845 0.0981 0.18967 0.14391 0.27883 0.52978 1.0246 1.172 2.2413 2.0187 3.8176-0.4445-0.26688-1.0153-0.5062-1.8118-0.71315 1.1587 0.59475 1.7259 1.1442 2.2705 1.5664 0.34576 0.64113 0.70971 1.3143 1.1153 2.0611-2.0569-1.1875-3.6575-1.9262-5.1475-2.2178 0.0496-0.22451 0.0786-0.46664 0.0848-0.71829 0.0331-1.336-0.60813-2.4757-1.4314-2.5455-0.82331-0.0698-1.5178 0.9576-1.5509 2.2936l-3e-3 0.0655c-3e-3 0.3134 0.0319 0.61527 0.0964 0.89304-1.5062 0.28337-3.1218 1.0258-5.2066 2.2294 1.2908-2.3194 2.242-4.0629 2.9965-5.4777 0.5264-0.98738 0.95093-1.8074 1.2991-2.5018 0.17566-0.35041 0.35654-0.70966 0.49984-1.0087l4e-3 4e-3c0.0777 0.0652 0.16668 0.12841 0.25442 0.19274 0.035 0.0257 0.0648 0.0515 0.10152 0.0771 0.0346 0.0241 0.0768 0.048 0.11307 0.072 0.0989 0.0655 0.19763 0.1317 0.30967 0.1966 8.6e-4 5.2e-4 2e-3 7.9e-4 3e-3 1e-3 0.15321 0.0887 0.3187 0.17673 0.49985 0.2647 0.18181 0.0882 0.37873 0.17545 0.59236 0.26342-0.19725-0.13801-0.37535-0.27228-0.53839-0.40219-1e-3 -9.9e-4 -3e-3 -2e-3 -4e-3 -3e-3 -0.49039-0.3911-0.83972-0.74488-1.1385-1.0614-2e-3 -2e-3 -5e-3 -3e-3 -6e-3 -5e-3 0.6521-1.3933 1.0077-2.3342 1.5934-3.7701z" fill="#04d1f9" stroke-width=".6579"/><path id="path1-3-1" d="m3.125 57.938c-1.7266 0-3.1098 1.3984-3.1098 3.125l-0.01526 18.75c0 1.7266 1.3984 3.125 3.125 3.125h25c1.7266 0 3.125-1.3984 3.125-3.125v-15.625c0-1.7266-1.3984-3.125-3.125-3.125h-12.5l-3.125-3.125h-9.375zm15.716 7.0312 9.1922 8.2719h-2.7573v7.3532h-4.5959v-5.5145h-3.6759v5.5145h-4.5959v-7.3532h-2.7573l9.1906-8.2719z" fill="#0ad6ff" stroke-width=".78125"/><path id="path1-6-6-8" d="m38.344 71.826h11.111v-13.889h-11.111zm0 11.111h11.111v-8.3333h-11.111zm13.889 0h11.111v-13.889h-11.111zm0-25v8.3333h11.111v-8.3333z" fill="#0ad6ff" stroke-width=".69444"/><path id="path1-2-0-7" d="m83.431 57.938-2.6316 2.6316v2.6316h-5.2632c-1.454 0-2.6187 1.1776-2.6187 2.6316l-0.0129 14.474c0 1.454 1.1776 2.6316 2.6316 2.6316h21.053c1.454 0 2.6316-1.1776 2.6316-2.6316v-14.474c0-1.454-1.1776-2.6316-2.6316-2.6316h-5.2632v-2.6316l-2.6316-2.6316zm0 2.6316h5.2632v2.6316h-5.2632zm2.6316 5.9211c0.01 0.0224 0.0163 0.037 0.0257 0.0591 0.21535 0.50589 0.40293 0.94682 0.58466 1.3736 3e-3 6e-3 5e-3 0.0143 8e-3 0.0206 0.0229 0.0538 0.0504 0.11751 0.0732 0.1709 0.0468 0.10751 0.11288 0.26194 0.15676 0.36236 0.47582 1.0975 1.0026 2.2328 1.9942 4.1607 0.0433 0.0845 0.0981 0.18967 0.14391 0.27883 0.52978 1.0246 1.172 2.2413 2.0187 3.8176-0.4445-0.26688-1.0153-0.5062-1.8118-0.71315 1.1587 0.59475 1.7259 1.1442 2.2705 1.5664 0.34576 0.64113 0.70971 1.3143 1.1153 2.0611-2.0569-1.1875-3.6575-1.9262-5.1475-2.2178 0.0496-0.22451 0.0786-0.46664 0.0848-0.71829 0.0331-1.336-0.60813-2.4757-1.4314-2.5455-0.82331-0.0698-1.5178 0.9576-1.5509 2.2936l-3e-3 0.0655c-3e-3 0.3134 0.0319 0.61527 0.0964 0.89304-1.5062 0.28337-3.1218 1.0258-5.2066 2.2294 1.2908-2.3194 2.242-4.0629 2.9965-5.4777 0.5264-0.98738 0.95093-1.8074 1.2991-2.5018 0.17566-0.35041 0.35654-0.70966 0.49984-1.0087l4e-3 4e-3c0.0777 0.0652 0.16668 0.12841 0.25442 0.19274 0.035 0.0257 0.0648 0.0515 0.10152 0.0771 0.0346 0.0241 0.0768 0.048 0.11307 0.072 0.0989 0.0655 0.19763 0.1317 0.30967 0.1966 8.6e-4 5.2e-4 2e-3 7.9e-4 3e-3 1e-3 0.15321 0.0887 0.3187 0.17673 0.49985 0.2647 0.18181 0.0882 0.37873 0.17545 0.59236 0.26342-0.19725-0.13801-0.37535-0.27228-0.53839-0.40219-1e-3 -9.9e-4 -3e-3 -2e-3 -4e-3 -3e-3 -0.49039-0.3911-0.83972-0.74488-1.1385-1.0614-2e-3 -2e-3 -5e-3 -3e-3 -6e-3 -5e-3 0.6521-1.3933 1.0077-2.3342 1.5934-3.7701z" fill="#0ad6ff" stroke-width=".6579"/><path id="path1" d="m3.125 0c-1.7266 0-3.1098 1.3984-3.1098 3.125l-0.01526 18.75c0 1.7266 1.3984 3.125 3.125 3.125h25c1.7266 0 3.125-1.3984 3.125-3.125v-15.625c0-1.7266-1.3984-3.125-3.125-3.125h-12.5l-3.125-3.125h-9.375zm15.716 7.0312 9.1922 8.2719h-2.7573v7.3532h-4.5959v-5.5145h-3.6759v5.5145h-4.5959v-7.3532h-2.7573l9.1906-8.2719z" fill="#0396b3" stroke-width=".78125"/><path id="path1-6" d="m38.344 13.889h11.111v-13.889h-11.111zm0 11.111h11.111v-8.3333h-11.111zm13.889 0h11.111v-13.889h-11.111zm0-25v8.3333h11.111v-8.3333z" fill="#0396b3" stroke-width=".69444"/><path id="path1-2" d="m83.431 0-2.6316 2.6316v2.6316h-5.2632c-1.4539 0-2.6187 1.1776-2.6187 2.6316l-0.01285 14.474c0 1.454 1.1776 2.6316 2.6316 2.6316h21.053c1.454 0 2.6316-1.1776 2.6316-2.6316v-14.474c0-1.454-1.1776-2.6316-2.6316-2.6316h-5.2632v-2.6316l-2.6316-2.6316zm0 2.6316h5.2632v2.6316h-5.2632zm2.6316 5.9211c0.01 0.0224 0.0163 0.0369 0.0257 0.0591 0.21535 0.50589 0.40293 0.94682 0.58466 1.3736 3e-3 6e-3 5e-3 0.0143 8e-3 0.0206 0.0229 0.0538 0.0504 0.11751 0.0732 0.1709 0.0468 0.10751 0.11288 0.26194 0.15676 0.36236 0.47582 1.0975 1.0026 2.2328 1.9942 4.1607 0.0433 0.0845 0.0981 0.18967 0.14391 0.27883 0.52979 1.0246 1.172 2.2413 2.0187 3.8176-0.4445-0.26688-1.0153-0.5062-1.8118-0.71315 1.1587 0.59475 1.7259 1.1442 2.2705 1.5664 0.34575 0.64113 0.7097 1.3143 1.1153 2.0611-2.0569-1.1875-3.6575-1.9262-5.1475-2.2178 0.0496-0.22451 0.0786-0.46664 0.0848-0.71829 0.0331-1.336-0.60814-2.4757-1.4314-2.5455-0.8233-0.0698-1.5178 0.9576-1.5509 2.2936l-3e-3 0.0655c-2e-3 0.3134 0.0319 0.61527 0.0964 0.89304-1.5062 0.28337-3.1218 1.0258-5.2066 2.2294 1.2908-2.3194 2.242-4.0629 2.9965-5.4777 0.5264-0.98738 0.95092-1.8074 1.2991-2.5018 0.17566-0.35041 0.35654-0.70966 0.49985-1.0087l4e-3 4e-3c0.0777 0.0652 0.16667 0.12841 0.25442 0.19274 0.035 0.0257 0.0648 0.0515 0.10151 0.0771 0.0346 0.0241 0.0768 0.048 0.11307 0.072 0.0989 0.0655 0.19763 0.1317 0.30968 0.1966 8.5e-4 5.2e-4 2e-3 7.9e-4 3e-3 1e-3 0.15321 0.0887 0.3187 0.17673 0.49985 0.2647 0.1818 0.0882 0.37873 0.17545 0.59236 0.26342-0.19725-0.13801-0.37535-0.27228-0.53839-0.40219-1e-3 -9.9e-4 -3e-3 -2e-3 -4e-3 -3e-3 -0.4904-0.3911-0.83972-0.74488-1.1385-1.0614-2e-3 -2e-3 -5e-3 -3e-3 -6e-3 -5e-3 0.6521-1.3933 1.0077-2.3342 1.5934-3.7701z" fill="#0396b3" stroke-width=".6579"/></svg>